<?xml version="1.0" encoding="UTF-8"?>
<svg xmlns:xlink="http://www.w3.org/1999/xlink" xmlns="http://www.w3.org/2000/svg" width="474px" height="474px" viewBox="0 0 474 474" version="1.1">
  <defs>
    <path d="M51.3728 89.6368C19.2129 130.093 0 181.303 0 237C-2.71645e-06 367.892 106.108 474 237 474C367.891 474 474 367.892 474 237C474 186.164 457.994 139.066 430.748 100.471C387.274 128.902 321.77 147 248.5 147C166.305 147 93.8836 124.225 51.3728 89.6368Z" id="path_1"></path>
    <path d="M51.3728 384.363C19.2129 343.907 2.77267e-06 292.697 4.82641e-06 237C9.11334e-06 106.108 106.109 -6.10352e-05 237 -6.10352e-05C367.892 -6.10352e-05 474 106.108 474 237C474 287.836 457.995 334.934 430.748 373.529C387.274 345.098 321.77 327 248.5 327C166.305 327 93.8836 349.775 51.3728 384.363Z" id="path_2"></path>
    <path d="M108 237C108 106.109 165.755 0 237 0C308.245 0 366 106.109 366 237C366 367.891 308.245 474 237 474C165.755 474 108 367.891 108 237Z" id="path_3"></path>
    <path d="M0 237C0 106.109 106.109 0 237 0C367.891 0 474 106.109 474 237C474 367.891 367.891 474 237 474C106.109 474 0 367.891 0 237Z" id="path_4"></path>
    <path d="M89.499 188L384.501 188Q384.697 188 384.893 188.01Q385.09 188.019 385.285 188.039Q385.48 188.058 385.675 188.087Q385.869 188.115 386.061 188.154Q386.254 188.192 386.445 188.24Q386.635 188.287 386.823 188.344Q387.011 188.401 387.196 188.468Q387.381 188.534 387.562 188.609Q387.743 188.684 387.921 188.768Q388.098 188.852 388.272 188.945Q388.445 189.037 388.613 189.138Q388.782 189.239 388.945 189.348Q389.108 189.457 389.266 189.574Q389.424 189.691 389.575 189.816Q389.727 189.94 389.873 190.072Q390.018 190.204 390.157 190.343Q390.296 190.482 390.428 190.627Q390.56 190.773 390.684 190.924Q390.809 191.076 390.926 191.234Q391.043 191.392 391.152 191.555Q391.261 191.718 391.362 191.887Q391.463 192.055 391.555 192.228Q391.648 192.401 391.732 192.579Q391.816 192.756 391.891 192.938Q391.966 193.119 392.032 193.304Q392.099 193.489 392.156 193.677Q392.213 193.865 392.26 194.055Q392.308 194.246 392.346 194.438Q392.385 194.631 392.413 194.825Q392.442 195.02 392.461 195.215Q392.481 195.41 392.49 195.607Q392.5 195.803 392.5 195.999L392.5 278.001Q392.5 278.197 392.49 278.393Q392.481 278.59 392.461 278.785Q392.442 278.98 392.413 279.175Q392.385 279.369 392.346 279.561Q392.308 279.754 392.26 279.945Q392.213 280.135 392.156 280.323Q392.099 280.511 392.032 280.696Q391.966 280.881 391.891 281.062Q391.816 281.243 391.732 281.421Q391.648 281.598 391.555 281.772Q391.463 281.945 391.362 282.113Q391.261 282.282 391.152 282.445Q391.043 282.608 390.926 282.766Q390.809 282.924 390.684 283.075Q390.56 283.227 390.428 283.373Q390.296 283.518 390.157 283.657Q390.018 283.796 389.873 283.928Q389.727 284.06 389.576 284.184Q389.424 284.309 389.266 284.426Q389.108 284.543 388.945 284.652Q388.782 284.761 388.613 284.862Q388.445 284.963 388.272 285.056Q388.098 285.148 387.921 285.232Q387.743 285.316 387.562 285.391Q387.381 285.466 387.196 285.532Q387.011 285.599 386.823 285.656Q386.635 285.713 386.445 285.76Q386.254 285.808 386.061 285.846Q385.869 285.885 385.675 285.913Q385.48 285.942 385.285 285.961Q385.09 285.981 384.893 285.99Q384.697 286 384.501 286L89.499 286Q89.3026 286 89.1065 285.99Q88.9104 285.981 88.715 285.961Q88.5195 285.942 88.3253 285.913Q88.1311 285.885 87.9385 285.846Q87.7459 285.808 87.5554 285.76Q87.3649 285.713 87.177 285.656Q86.9891 285.599 86.8042 285.532Q86.6193 285.466 86.4379 285.391Q86.2565 285.316 86.079 285.232Q85.9015 285.148 85.7283 285.055Q85.5551 284.963 85.3867 284.862Q85.2183 284.761 85.055 284.652Q84.8917 284.543 84.734 284.426Q84.5763 284.309 84.4245 284.184Q84.2727 284.06 84.1272 283.928Q83.9817 283.796 83.8428 283.657Q83.704 283.518 83.5721 283.373Q83.4403 283.227 83.3157 283.075Q83.1911 282.924 83.0741 282.766Q82.9572 282.608 82.8481 282.445Q82.739 282.282 82.638 282.113Q82.5371 281.945 82.4445 281.772Q82.352 281.598 82.268 281.421Q82.184 281.243 82.1089 281.062Q82.0337 280.881 81.9676 280.696Q81.9014 280.511 81.8444 280.323Q81.7874 280.135 81.7397 279.945Q81.692 279.754 81.6537 279.561Q81.6154 279.369 81.5866 279.175Q81.5578 278.98 81.5385 278.785Q81.5193 278.59 81.5096 278.393Q81.5 278.197 81.5 278.001L81.5 195.999Q81.5 195.803 81.5096 195.607Q81.5193 195.41 81.5385 195.215Q81.5578 195.02 81.5866 194.825Q81.6154 194.631 81.6537 194.438Q81.692 194.246 81.7397 194.055Q81.7874 193.865 81.8444 193.677Q81.9014 193.489 81.9676 193.304Q82.0337 193.119 82.1089 192.938Q82.184 192.756 82.268 192.579Q82.3519 192.401 82.4445 192.228Q82.5371 192.055 82.638 191.887Q82.739 191.718 82.8481 191.555Q82.9572 191.392 83.0741 191.234Q83.1911 191.076 83.3157 190.924Q83.4403 190.773 83.5721 190.627Q83.704 190.482 83.8428 190.343Q83.9817 190.204 84.1272 190.072Q84.2727 189.94 84.4245 189.816Q84.5763 189.691 84.734 189.574Q84.8917 189.457 85.055 189.348Q85.2183 189.239 85.3867 189.138Q85.5551 189.037 85.7283 188.945Q85.9015 188.852 86.079 188.768Q86.2565 188.684 86.4379 188.609Q86.6193 188.534 86.8042 188.468Q86.9891 188.401 87.177 188.344Q87.3649 188.287 87.5554 188.24Q87.7459 188.192 87.9385 188.154Q88.1311 188.115 88.3253 188.087Q88.5195 188.058 88.715 188.039Q88.9104 188.019 89.1065 188.01Q89.3026 188 89.499 188Z" id="path_5"></path>
    <clipPath id="clip_1">
      <use xlink:href="#path_1"></use>
    </clipPath>
    <clipPath id="clip_2">
      <use xlink:href="#path_2"></use>
    </clipPath>
    <clipPath id="clip_3">
      <use xlink:href="#path_3"></use>
    </clipPath>
    <clipPath id="clip_4">
      <use xlink:href="#path_4"></use>
    </clipPath>
  </defs>
  <g id="Group-22">
    <g id="Oval-6-Subtract">
      <g clip-path="url(#clip_1)">
        <use xlink:href="#path_1" fill="none" stroke="#3F454F" stroke-width="40"></use>
      </g>
    </g>
    <g id="Oval-6-Subtract-2">
      <g clip-path="url(#clip_2)">
        <use xlink:href="#path_2" fill="none" stroke="#3F454F" stroke-width="40"></use>
      </g>
    </g>
    <g id="Oval-5-Copy">
      <g clip-path="url(#clip_3)">
        <use xlink:href="#path_3" fill="none" stroke="#3F454F" stroke-width="40"></use>
      </g>
    </g>
    <path d="M247 5.49997L247.001 468.5L227.001 468.5L227 5.5L247 5.49997Z" id="Rectangle-10" fill="#3F454F" fill-rule="evenodd" stroke="none"></path>
    <path d="M5.5 227L468.5 227L468.5 247L5.5 247L5.5 227Z" id="Rectangle-9" fill="#3F454F" fill-rule="evenodd" stroke="none"></path>
    <g id="Oval-5">
      <g clip-path="url(#clip_4)">
        <use xlink:href="#path_4" fill="none" stroke="#3F454F" stroke-width="40"></use>
      </g>
    </g>
    <g id="Rectangle-9">
      <use xlink:href="#path_5" fill="none" stroke="#FFFFFF" stroke-width="40"></use>
      <use stroke="none" fill="#FC4850" xlink:href="#path_5" fill-rule="evenodd"></use>
    </g>
    <path d="M364.205 225.592C359.915 225.592 357.055 227.282 355.17 229.427L355.17 226.372L344.64 226.372L344.64 259.327L355.17 259.327L355.17 241.582C355.17 237.942 357.38 235.927 360.435 235.927C363.36 235.927 365.7 237.812 365.7 241.582L365.7 259.327L376.295 259.327L376.295 238.722C376.295 232.092 372.395 225.592 364.205 225.592L364.205 225.592ZM322.215 225.592C312.79 225.592 305.185 233.132 305.185 242.882C305.185 253.152 312.595 260.172 323.71 260.172C330.145 260.172 335.215 257.312 337.88 253.217L330.47 248.797C329.43 250.032 327.09 251.657 323.71 251.657C319.68 251.657 316.56 249.902 315.455 246.067L339.245 246.067C340.545 232.222 331.965 225.592 322.215 225.592L322.215 225.592ZM315.455 239.697C316.43 236.057 319.225 234.107 322.54 234.107C326.18 234.107 328.91 235.862 329.69 239.697L315.455 239.697ZM291.73 226.372L285.035 247.432L278.34 226.372L267.095 226.372L279.9 259.327L290.105 259.327L302.91 226.372L291.73 226.372ZM247.14 225.592C236.87 225.592 229.46 233.067 229.46 242.882C229.46 252.632 236.87 260.172 247.14 260.172C257.475 260.172 264.82 252.632 264.82 242.882C264.82 233.067 257.475 225.592 247.14 225.592L247.14 225.592ZM247.14 249.902C242.915 249.902 240.12 246.717 240.12 242.882C240.12 239.047 242.915 235.797 247.14 235.797C251.43 235.797 254.225 239.047 254.225 242.882C254.225 246.717 251.43 249.902 247.14 249.902L247.14 249.902ZM210.415 225.592C205.995 225.592 203.07 227.282 201.12 229.622L201.12 213.827L190.59 213.827L190.59 259.327L201.12 259.327L201.12 256.142C203.07 258.482 205.995 260.172 210.415 260.172C220.685 260.172 226.21 251.527 226.21 242.882C226.21 234.237 220.685 225.592 210.415 225.592L210.415 225.592ZM208.53 249.902C204.565 249.902 201.51 247.237 201.51 242.882C201.51 238.462 204.565 235.797 208.53 235.797C212.885 235.797 215.55 238.787 215.55 242.882C215.55 246.912 212.885 249.902 208.53 249.902L208.53 249.902ZM168.165 225.592C158.74 225.592 151.135 233.132 151.135 242.882C151.135 253.152 158.545 260.172 169.66 260.172C176.095 260.172 181.165 257.312 183.83 253.217L176.42 248.797C175.38 250.032 173.04 251.657 169.66 251.657C165.63 251.657 162.51 249.902 161.405 246.067L185.195 246.067C186.495 232.222 177.915 225.592 168.165 225.592L168.165 225.592ZM161.405 239.697C162.38 236.057 165.175 234.107 168.49 234.107C172.13 234.107 174.86 235.862 175.64 239.697L161.405 239.697ZM137.68 226.372L132.805 244.832L126.63 226.372L120 226.372L113.825 244.832L108.95 226.372L97.7051 226.372L108.82 259.327L117.27 259.327L123.315 241.582L129.36 259.327L137.81 259.327L148.86 226.372L137.68 226.372Z" id="weboven" fill="#FFFFFF" stroke="none"></path>
  </g>
</svg>
