<?xml version="1.0" encoding="utf-8"?>
<svg width="215.9805px" height="170.84314px" viewBox="0 0 215.9805 170.84314" version="1.1" xmlns:xlink="http://www.w3.org/1999/xlink" xmlns="http://www.w3.org/2000/svg">
  <g id="Group-3">
    <path d="M0 0L131.181 0L131.181 170.843L0 170.843L0 0Z" id="Rectangle" fill="#59ADFF" fill-rule="evenodd" stroke="none" />
    <path d="M131.161 0L173.834 0L173.834 170.843L131.161 170.843L131.161 0Z" id="Rectangle-2" fill="#025CB1" fill-rule="evenodd" stroke="none" />
    <path d="M173.307 0L215.981 0L215.981 170.843L173.307 170.843L173.307 0Z" id="Rectangle-3" fill="#014E98" fill-rule="evenodd" stroke="none" />
    <path d="M16.7763 86.3247C16.7763 76.3541 18.2214 67.6479 21.1114 60.206C24.0014 52.7642 27.8307 46.5867 32.5993 41.6737C37.3678 36.7606 42.8589 33.0758 49.0725 30.6193C55.2861 28.1628 61.6441 26.9345 68.1467 26.9345C83.3194 26.9345 94.9518 31.6669 103.044 41.1318C111.136 50.5967 115.182 65.0107 115.182 84.3739C115.182 85.241 115.182 86.3608 115.182 87.7336C115.182 89.1064 115.11 90.3708 114.965 91.5268L37.8013 91.5268C38.6684 103.231 42.0641 112.118 47.9887 118.187C53.9133 124.256 63.1614 127.291 75.7331 127.291C82.8136 127.291 88.7743 126.677 93.6151 125.449C98.456 124.22 102.105 123.028 104.561 121.872L107.379 138.779C104.922 140.079 100.623 141.452 94.4822 142.897C88.3408 144.342 81.3686 145.065 73.5655 145.065C63.7394 145.065 55.2499 143.584 48.0971 140.621C40.9443 137.659 35.0558 133.577 30.4318 128.375C25.8077 123.173 22.3758 116.995 20.136 109.842C17.8962 102.69 16.7763 94.8503 16.7763 86.3247L16.7763 86.3247ZM94.1571 75.2703C94.3016 66.1667 92.0256 58.6888 87.3293 52.8364C82.633 46.9841 76.1666 44.058 67.93 44.058C63.3059 44.058 59.2238 44.9611 55.6835 46.7673C52.1432 48.5736 49.1447 50.9218 46.6882 53.8118C44.2317 56.7019 42.317 60.0254 40.9443 63.7824C39.5715 67.5395 38.6684 71.3688 38.2349 75.2703L94.1571 75.2703Z" id="e" fill="#FFFFFF" stroke="none" />
  </g>
</svg>