<?xml version="1.0" encoding="utf-8"?>
<svg width="206.05371px" height="68.86719px" viewBox="0 0 206.05371 68.86719" version="1.1" xmlns:xlink="http://www.w3.org/1999/xlink" xmlns="http://www.w3.org/2000/svg">
  <g id="logo-to-export">
    <path d="M0 0L30 0L30 65L0 65L0 0Z" id="Rectangle-3" fill="#90C418" fill-rule="evenodd" stroke="none" />
    <path d="M196.034 59.4102C195.05 59.4102 194.276 59.1055 193.714 58.4961C193.151 57.8867 192.87 57.0488 192.87 55.9824C192.87 54.916 193.145 53.4629 193.696 51.623C194.247 49.7832 194.798 48.1133 195.349 46.6133C195.899 45.1133 196.175 44.1113 196.175 43.6074C196.175 43.1035 196.011 42.8516 195.683 42.8516C194.862 42.8516 193.538 44.4688 191.71 47.7031L189.354 46.332C192.8 40.5195 195.964 37.6133 198.847 37.6133C200.815 37.6133 201.8 38.8555 201.8 41.3398C201.8 42.0664 201.565 43.2266 201.097 44.8203L198.565 52.0625C198.308 52.7422 198.179 53.3574 198.179 53.9082C198.179 54.459 198.39 54.7344 198.811 54.7344C199.608 54.7344 201.073 53.2578 203.206 50.3047L204.683 51.6758C203.417 54.0195 201.911 55.8945 200.165 57.3008C198.419 58.707 197.042 59.4102 196.034 59.4102L196.034 59.4102ZM206.054 27.2422C206.054 28.1797 205.737 29.0352 205.104 29.8086C204.472 30.582 203.616 30.9688 202.538 30.9688C201.46 30.9688 200.651 30.6465 200.112 30.002C199.573 29.3574 199.304 28.543 199.304 27.5586C199.304 26.5742 199.638 25.7012 200.306 24.9395C200.974 24.1777 201.835 23.7969 202.89 23.7969C203.944 23.7969 204.735 24.1309 205.263 24.7988C205.79 25.4668 206.054 26.2812 206.054 27.2422L206.054 27.2422ZM184.781 12.0898L190.476 12.0898C189.468 13.8242 187.922 17.6738 185.836 23.6387C183.75 29.6035 181.845 35.6035 180.123 41.6387C178.4 47.6738 177.539 51.3652 177.539 52.7129C177.539 54.0605 177.703 54.7344 178.031 54.7344C179.015 54.7344 180.55 53.2461 182.636 50.2695L184.113 51.6758C183.082 53.457 181.968 54.957 180.773 56.1758C178.664 58.332 176.953 59.4102 175.64 59.4102C173.25 59.4102 172.054 57.9688 172.054 55.0859C172.054 50.7969 173.478 44.0352 176.326 34.8008C179.174 25.5664 181.992 17.9961 184.781 12.0898L184.781 12.0898ZM157.426 38.3867L162.911 38.3867L160.133 48.8984C159.688 50.375 159.465 51.7168 159.465 52.9238C159.465 54.1309 159.676 54.7344 160.098 54.7344C160.52 54.7344 161.1 54.3652 161.838 53.627C162.577 52.8887 163.204 52.1445 163.719 51.3945L164.528 50.2695L166.04 51.6758C165.266 53.1758 164.282 54.5469 163.086 55.7891C160.766 58.2031 158.75 59.4102 157.04 59.4102C155.024 59.4102 154.016 57.8516 154.016 54.7344C154.016 54.2188 154.04 53.832 154.086 53.5742C153.735 54.7695 153.067 55.8242 152.083 56.7383C150.208 58.5195 148.092 59.4102 145.737 59.4102C143.381 59.4102 141.495 58.6074 140.077 57.002C138.659 55.3965 137.95 53.3867 137.95 50.9727C137.95 47.2227 139.168 44.0586 141.606 41.4805C144.043 38.9023 146.903 37.6133 150.184 37.6133C151.825 37.6133 153.184 38.0645 154.262 38.9668C155.34 39.8691 156.043 41.0469 156.372 42.5L157.426 38.3867ZM151.555 40.6367C150.196 40.6367 148.924 41.2051 147.741 42.3418C146.557 43.4785 145.649 44.8496 145.016 46.4551C144.383 48.0605 144.067 49.625 144.067 51.1484C144.067 52.6719 144.401 53.9023 145.069 54.8398C145.737 55.7773 146.768 56.2461 148.163 56.2461C149.557 56.2461 150.817 55.6133 151.942 54.3477C154.075 51.9102 155.141 49.0156 155.141 45.6641C155.141 42.3125 153.946 40.6367 151.555 40.6367L151.555 40.6367ZM120.298 54.5234C117.837 57.7813 114.896 59.4102 111.474 59.4102C109.177 59.4102 107.232 58.5723 105.638 56.8965C104.044 55.2207 103.247 53.082 103.247 50.4805C103.247 46.9883 104.56 43.9707 107.185 41.4277C109.81 38.8848 112.751 37.6133 116.009 37.6133C117.697 37.6133 119.144 37.9473 120.351 38.6152C121.558 39.2832 122.337 40.1914 122.689 41.3398C123.767 36.9102 125.32 31.7715 127.347 25.9238C129.374 20.0762 131.243 15.4766 132.954 12.125L138.579 12.125C136.4 16.4375 133.716 23.7441 130.529 34.0449C127.341 44.3457 125.747 50.7852 125.747 53.3633C125.747 54.2773 125.935 54.7344 126.31 54.7344C127.247 54.7344 128.747 53.2461 130.81 50.2695L132.322 51.6758C130.845 54.3008 129.263 56.2461 127.575 57.5117C125.888 58.7773 124.534 59.4102 123.515 59.4102C122.495 59.4102 121.699 59.041 121.124 58.3027C120.55 57.5645 120.263 56.4922 120.263 55.0859C120.263 55.0391 120.269 54.9512 120.281 54.8223C120.292 54.6934 120.298 54.5938 120.298 54.5234L120.298 54.5234ZM109.611 50.2695C109.611 54.043 111.064 55.9297 113.97 55.9297C116.689 55.9297 118.927 54.1133 120.685 50.4805C121.505 48.7695 121.915 47.3867 121.915 46.332C121.915 42.5352 120.474 40.6367 117.591 40.6367C115.669 40.6367 113.859 41.5215 112.159 43.291C110.46 45.0605 109.611 47.3867 109.611 50.2695L109.611 50.2695ZM81.0958 51.9219C81.2364 54.6172 83.0528 55.9648 86.545 55.9648C87.8341 55.9648 89.1759 55.5957 90.5704 54.8574C91.9649 54.1191 93.0958 53.2461 93.963 52.2383L95.4747 53.2227C93.5294 56.4805 90.4239 58.4727 86.1583 59.1992C85.2208 59.3398 84.3185 59.4102 83.4513 59.4102C80.92 59.4102 78.8106 58.5723 77.1231 56.8965C75.4356 55.2207 74.5919 53.1758 74.5919 50.7617C74.5919 48.3477 75.3302 46.1152 76.8067 44.0645C78.2833 42.0137 80.129 40.4258 82.3438 39.3008C84.5587 38.1758 86.7442 37.6133 88.9005 37.6133C91.0567 37.6133 92.9259 38.1055 94.5079 39.0898C96.0899 40.0742 96.8985 41.3984 96.9337 43.0625C96.9688 44.7266 96.4825 46.1621 95.4747 47.3691C94.4669 48.5762 93.1895 49.4961 91.6427 50.1289C88.5724 51.3711 85.5606 51.9922 82.6075 51.9922L81.0958 51.9219ZM80.8849 49.9883C83.4864 49.8945 85.5782 49.4785 87.1602 48.7402C88.7423 48.002 89.8438 47.1582 90.4649 46.209C91.086 45.2598 91.3966 44.2637 91.3966 43.2207C91.3966 42.1777 91.127 41.4043 90.588 40.9004C90.0489 40.3965 89.4747 40.1445 88.8653 40.1445C87.3653 40.1445 85.9884 40.666 84.7345 41.709C83.4806 42.752 82.5255 44.0176 81.8692 45.5059C81.213 46.9941 80.8849 48.4883 80.8849 49.9883L80.8849 49.9883ZM63.3388 40.707L62.495 44.293C60.9247 50.9258 59.6239 55.5898 58.5927 58.2852C56.6005 63.418 54.0458 66.6641 50.9286 68.0234C49.6395 68.5859 48.3329 68.8672 47.0087 68.8672C45.6845 68.8672 44.7528 68.6152 44.2138 68.1113C43.6747 67.6074 43.4052 66.998 43.4052 66.2832C43.4052 65.5684 43.6395 64.9531 44.1083 64.4375C44.577 63.9219 45.1688 63.6641 45.8837 63.6641C46.5985 63.6641 47.1903 63.8281 47.6591 64.1562C48.1278 64.4844 48.3622 64.9355 48.3622 65.5098C48.3622 66.084 48.1981 66.6289 47.87 67.1445C50.2841 66.7695 52.452 62.1992 54.3739 53.4336C54.6786 52.0508 55.0243 50.4043 55.411 48.4941C55.7978 46.584 56.0966 45.1836 56.3075 44.293L57.1513 40.707L50.5419 40.707L51.1044 38.3867L57.6435 38.3867C60.4325 27.0664 63.702 19.168 67.452 14.6914C70.5458 11.0117 74.2841 9.17188 78.6669 9.17188C80.6356 9.17188 82.2938 9.57031 83.6415 10.3672C84.9892 11.1641 85.663 12.4883 85.663 14.3398C85.663 15.418 85.2938 16.2676 84.5556 16.8887C83.8173 17.5098 82.9501 17.8203 81.954 17.8203C80.9579 17.8203 80.1142 17.5332 79.4228 16.959C78.7313 16.3848 78.3856 15.6406 78.3856 14.7266C78.3856 13.8125 78.702 12.9219 79.3349 12.0547C78.1864 11.6562 77.2841 11.457 76.6278 11.457C75.9716 11.457 75.1923 11.7793 74.2899 12.4238C73.3876 13.0684 72.5849 13.9297 71.8817 15.0078C69.1395 19.2266 66.4677 27.0195 63.8661 38.3867L72.2685 38.3867L71.706 40.707L63.3388 40.707ZM45.8981 12.0898L51.5935 12.0898C50.5856 13.8242 49.0388 17.6738 46.9528 23.6387C44.8669 29.6035 42.9626 35.6035 41.2399 41.6387C39.5173 47.6738 38.656 51.3652 38.656 52.7129C38.656 54.0605 38.82 54.7344 39.1481 54.7344C40.1325 54.7344 41.6677 53.2461 43.7536 50.2695L45.2302 51.6758C44.1989 53.457 43.0856 54.957 41.8903 56.1758C39.781 58.332 38.07 59.4102 36.7575 59.4102C34.3669 59.4102 33.1716 57.9688 33.1716 55.0859C33.1716 50.7969 34.5954 44.0352 37.4431 34.8008C40.2907 25.5664 43.1091 17.9961 45.8981 12.0898L45.8981 12.0898ZM10.6685 51.9219C10.8091 54.6172 12.6255 55.9648 16.1177 55.9648C17.4067 55.9648 18.7485 55.5957 20.1431 54.8574C21.5376 54.1191 22.6685 53.2461 23.5356 52.2383L25.0474 53.2227C23.1021 56.4805 19.9966 58.4727 15.731 59.1992C14.7935 59.3398 13.8911 59.4102 13.0239 59.4102C10.4927 59.4102 8.3833 58.5723 6.6958 56.8965C5.0083 55.2207 4.16455 53.1758 4.16455 50.7617C4.16455 48.3477 4.90283 46.1152 6.37939 44.0645C7.85596 42.0137 9.70166 40.4258 11.9165 39.3008C14.1313 38.1758 16.3169 37.6133 18.4731 37.6133C20.6294 37.6133 22.4985 38.1055 24.0806 39.0898C25.6626 40.0742 26.4712 41.3984 26.5063 43.0625C26.5415 44.7266 26.0552 46.1621 25.0474 47.3691C24.0396 48.5762 22.7622 49.4961 21.2153 50.1289C18.145 51.3711 15.1333 51.9922 12.1802 51.9922L10.6685 51.9219ZM10.4575 49.9883C13.0591 49.8945 15.1509 49.4785 16.7329 48.7402C18.3149 48.002 19.4165 47.1582 20.0376 46.209C20.6587 45.2598 20.9692 44.2637 20.9692 43.2207C20.9692 42.1777 20.6997 41.4043 20.1606 40.9004C19.6216 40.3965 19.0474 40.1445 18.438 40.1445C16.938 40.1445 15.561 40.666 14.3071 41.709C13.0532 42.752 12.0981 44.0176 11.4419 45.5059C10.7856 46.9941 10.4575 48.4883 10.4575 49.9883L10.4575 49.9883Z" id="elfedali" fill="#000000" stroke="none" />
  </g>
</svg>